<svg width="466" height="134" viewBox="0 0 466 134" fill="none" xmlns="http://www.w3.org/2000/svg">
<path d="M208.5 48.5001C407.642 -51.2442 274.32 56.2132 234.553 99.9325C194.786 143.652 295.5 83.5 295.5 83.5" stroke="#08DD7B" stroke-width="14" stroke-linecap="round" stroke-linejoin="round"/>
<path d="M205.746 39.2982C206.176 38.6549 207.142 38.7228 207.478 39.4198L215.097 55.2277C215.43 55.9194 214.892 56.7132 214.126 56.6594L196.755 55.4399C195.989 55.3862 195.567 54.525 195.993 53.8866L205.746 39.2982Z" fill="#08DD7B"/>
<path d="M31.168 84.96C33.7707 85.5147 35.8613 86.816 37.44 88.864C39.0187 90.8694 39.808 93.1734 39.808 95.776C39.808 99.5307 38.4853 102.517 35.84 104.736C33.2373 106.912 29.5893 108 24.896 108H3.968V63.072H24.192C28.7573 63.072 32.32 64.1174 34.88 66.208C37.4827 68.2987 38.784 71.136 38.784 74.72C38.784 77.3654 38.08 79.5627 36.672 81.312C35.3067 83.0614 33.472 84.2774 31.168 84.96ZM14.912 81.248H22.08C23.872 81.248 25.2373 80.864 26.176 80.096C27.1573 79.2854 27.648 78.112 27.648 76.576C27.648 75.04 27.1573 73.8667 26.176 73.056C25.2373 72.2454 23.872 71.84 22.08 71.84H14.912V81.248ZM22.976 99.168C24.8107 99.168 26.2187 98.7627 27.2 97.952C28.224 97.0987 28.736 95.8827 28.736 94.304C28.736 92.7254 28.2027 91.488 27.136 90.592C26.112 89.696 24.6827 89.248 22.848 89.248H14.912V99.168H22.976ZM78.2195 72.288V108H67.2755V103.136C66.1662 104.715 64.6515 105.995 62.7315 106.976C60.8542 107.915 58.7635 108.384 56.4595 108.384C53.7288 108.384 51.3182 107.787 49.2275 106.592C47.1368 105.355 45.5155 103.584 44.3635 101.28C43.2115 98.976 42.6355 96.2667 42.6355 93.152V72.288H53.5155V91.68C53.5155 94.0694 54.1342 95.9254 55.3715 97.248C56.6088 98.5707 58.2728 99.232 60.3635 99.232C62.4968 99.232 64.1822 98.5707 65.4195 97.248C66.6568 95.9254 67.2755 94.0694 67.2755 91.68V72.288H78.2195ZM80.7045 90.08C80.7045 86.4107 81.3872 83.1894 82.7525 80.416C84.1605 77.6427 86.0592 75.5094 88.4485 74.016C90.8378 72.5227 93.5045 71.776 96.4485 71.776C98.7952 71.776 100.928 72.2667 102.848 73.248C104.811 74.2294 106.347 75.552 107.456 77.216V60.64H118.401V108H107.456V102.88C106.432 104.587 104.96 105.952 103.04 106.976C101.163 108 98.9658 108.512 96.4485 108.512C93.5045 108.512 90.8378 107.765 88.4485 106.272C86.0592 104.736 84.1605 102.581 82.7525 99.808C81.3872 96.992 80.7045 93.7494 80.7045 90.08ZM107.456 90.144C107.456 87.4134 106.688 85.2587 105.153 83.68C103.659 82.1014 101.824 81.312 99.6485 81.312C97.4725 81.312 95.6165 82.1014 94.0805 83.68C92.5872 85.216 91.8405 87.3494 91.8405 90.08C91.8405 92.8107 92.5872 94.9867 94.0805 96.608C95.6165 98.1867 97.4725 98.976 99.6485 98.976C101.824 98.976 103.659 98.1867 105.153 96.608C106.688 95.0294 107.456 92.8747 107.456 90.144ZM136.686 71.776C139.203 71.776 141.401 72.288 143.278 73.312C145.198 74.336 146.67 75.68 147.694 77.344V72.288H158.638V107.936C158.638 111.221 157.977 114.187 156.654 116.832C155.374 119.52 153.39 121.653 150.702 123.232C148.057 124.811 144.75 125.6 140.782 125.6C135.491 125.6 131.203 124.341 127.918 121.824C124.633 119.349 122.755 115.979 122.286 111.712H133.102C133.443 113.077 134.254 114.144 135.534 114.912C136.814 115.723 138.393 116.128 140.27 116.128C142.531 116.128 144.323 115.467 145.646 114.144C147.011 112.864 147.694 110.795 147.694 107.936V102.88C146.627 104.544 145.155 105.909 143.278 106.976C141.401 108 139.203 108.512 136.686 108.512C133.742 108.512 131.075 107.765 128.686 106.272C126.297 104.736 124.398 102.581 122.99 99.808C121.625 96.992 120.942 93.7494 120.942 90.08C120.942 86.4107 121.625 83.1894 122.99 80.416C124.398 77.6427 126.297 75.5094 128.686 74.016C131.075 72.5227 133.742 71.776 136.686 71.776ZM147.694 90.144C147.694 87.4134 146.926 85.2587 145.39 83.68C143.897 82.1014 142.062 81.312 139.886 81.312C137.71 81.312 135.854 82.1014 134.318 83.68C132.825 85.216 132.078 87.3494 132.078 90.08C132.078 92.8107 132.825 94.9867 134.318 96.608C135.854 98.1867 137.71 98.976 139.886 98.976C142.062 98.976 143.897 98.1867 145.39 96.608C146.926 95.0294 147.694 92.8747 147.694 90.144ZM197.019 89.568C197.019 90.592 196.955 91.6587 196.827 92.768H172.059C172.23 94.9867 172.934 96.6934 174.171 97.888C175.451 99.04 177.009 99.616 178.843 99.616C181.574 99.616 183.473 98.464 184.539 96.16H196.188C195.59 98.5067 194.502 100.619 192.924 102.496C191.387 104.373 189.446 105.845 187.099 106.912C184.753 107.979 182.129 108.512 179.227 108.512C175.729 108.512 172.614 107.765 169.883 106.272C167.153 104.779 165.019 102.645 163.483 99.872C161.947 97.0987 161.179 93.856 161.179 90.144C161.179 86.432 161.926 83.1894 163.419 80.416C164.955 77.6427 167.089 75.5094 169.819 74.016C172.55 72.5227 175.686 71.776 179.227 71.776C182.683 71.776 185.755 72.5014 188.443 73.952C191.131 75.4027 193.222 77.472 194.715 80.16C196.251 82.848 197.019 85.984 197.019 89.568ZM185.819 86.688C185.819 84.8107 185.179 83.3174 183.899 82.208C182.619 81.0987 181.019 80.544 179.099 80.544C177.265 80.544 175.707 81.0774 174.427 82.144C173.19 83.2107 172.422 84.7254 172.123 86.688H185.819ZM219.497 98.72V108H213.929C209.961 108 206.868 107.04 204.649 105.12C202.43 103.157 201.321 99.9787 201.321 95.584V81.376H196.969V72.288H201.321V63.584H212.265V72.288H219.433V81.376H212.265V95.712C212.265 96.7787 212.521 97.5467 213.033 98.016C213.545 98.4854 214.398 98.72 215.593 98.72H219.497Z" fill="#333333"/>
<path d="M309.872 98.72V108H304.304C300.336 108 297.243 107.04 295.024 105.12C292.805 103.157 291.696 99.9787 291.696 95.584V81.376H287.344V72.288H291.696V63.584H302.64V72.288H309.808V81.376H302.64V95.712C302.64 96.7787 302.896 97.5467 303.408 98.016C303.92 98.4853 304.773 98.72 305.968 98.72H309.872ZM323.712 78.24C324.992 76.2773 326.592 74.7413 328.512 73.632C330.432 72.48 332.565 71.904 334.912 71.904V83.488H331.904C329.173 83.488 327.125 84.0853 325.76 85.28C324.395 86.432 323.712 88.48 323.712 91.424V108H312.768V72.288H323.712V78.24ZM334.767 90.08C334.767 86.4107 335.45 83.1893 336.815 80.416C338.223 77.6427 340.122 75.5093 342.511 74.016C344.9 72.5227 347.567 71.776 350.511 71.776C353.028 71.776 355.226 72.288 357.103 73.312C359.023 74.336 360.495 75.68 361.519 77.344V72.288H372.463V108H361.519V102.944C360.452 104.608 358.959 105.952 357.039 106.976C355.162 108 352.964 108.512 350.447 108.512C347.546 108.512 344.9 107.765 342.511 106.272C340.122 104.736 338.223 102.581 336.815 99.808C335.45 96.992 334.767 93.7493 334.767 90.08ZM361.519 90.144C361.519 87.4133 360.751 85.2587 359.215 83.68C357.722 82.1013 355.887 81.312 353.711 81.312C351.535 81.312 349.679 82.1013 348.143 83.68C346.65 85.216 345.903 87.3493 345.903 90.08C345.903 92.8107 346.65 94.9867 348.143 96.608C349.679 98.1867 351.535 98.976 353.711 98.976C355.887 98.976 357.722 98.1867 359.215 96.608C360.751 95.0293 361.519 92.8747 361.519 90.144ZM393.245 97.76L400.989 72.288H412.637L399.965 108H386.461L373.789 72.288H385.501L393.245 97.76ZM447.707 89.568C447.707 90.592 447.643 91.6587 447.515 92.768H422.747C422.918 94.9867 423.622 96.6933 424.859 97.888C426.139 99.04 427.696 99.616 429.531 99.616C432.262 99.616 434.16 98.464 435.227 96.16H446.875C446.278 98.5067 445.19 100.619 443.611 102.496C442.075 104.373 440.134 105.845 437.787 106.912C435.44 107.979 432.816 108.512 429.915 108.512C426.416 108.512 423.302 107.765 420.571 106.272C417.84 104.779 415.707 102.645 414.171 99.872C412.635 97.0987 411.867 93.856 411.867 90.144C411.867 86.432 412.614 83.1893 414.107 80.416C415.643 77.6427 417.776 75.5093 420.507 74.016C423.238 72.5227 426.374 71.776 429.915 71.776C433.371 71.776 436.443 72.5013 439.131 73.952C441.819 75.4027 443.91 77.472 445.403 80.16C446.939 82.848 447.707 85.984 447.707 89.568ZM436.507 86.688C436.507 84.8107 435.867 83.3173 434.587 82.208C433.307 81.0987 431.707 80.544 429.787 80.544C427.952 80.544 426.395 81.0773 425.115 82.144C423.878 83.2107 423.11 84.7253 422.811 86.688H436.507ZM461.225 60.64V108H450.281V60.64H461.225Z" fill="#333333"/>
</svg>
